<svg xmlns="http://www.w3.org/2000/svg" width="220" height="160" viewBox="0 0 219.99998 160"><path d="M80.83 53.58c.26 1.62.4 3.27.4 4.96-.03 17.2-13.95 31.14-31.17 31.17-17.2-.02-31.14-13.95-31.17-31.16.02-17.22 13.95-31.14 31.16-31.17 9.54.02 18.06 4.3 23.78 11.04 1.1-1.96 2.4-3.84 3.8-5.6-6.87-7.37-16.68-12-27.58-12-20.84 0-37.73 16.9-37.73 37.74 0 20.84 16.9 37.73 37.73 37.73 20.84 0 37.74-16.9 37.74-37.73 0-5.4-1.14-10.5-3.18-15.15-1.87 3.05-3.18 6.5-3.8 10.18z" fill="#55b494"/><path d="M190.42 86.77l-54.9-54.9c-7.37-7.38-17.05-11.07-26.7-11.07-9.64 0-19.3 3.7-26.67 11.06C74.78 39.22 71.1 48.9 71.1 58.54c0 5 1 10 2.96 14.67 1.98-3.27 3.3-6.97 3.83-10.94-.16-1.23-.24-2.48-.24-3.72 0-8 3.03-15.94 9.13-22.04 6.08-6.1 14.04-9.13 22.03-9.13 8 0 15.95 3.03 22.04 9.13l52.6 52.6-44.1 44.07-52.58-52.6c-.73-.7-1.4-1.46-2.04-2.23-1.12 1.98-2.4 3.86-3.82 5.6.4.44.8.87 1.2 1.28l57.24 57.24 53.36-53.37-2.32-2.33z" fill="#df5424"/><path d="M146.6 37.8l1.3-1.3c6.1-6.1 14.05-9.13 22.03-9.13 8 0 15.95 3.04 22.04 9.13 6.1 6.1 9.13 14.05 9.13 22.04 0 7.98-3.04 15.94-9.13 22.04l-1.28 1.3 4.63 4.63 1.3-1.28c7.35-7.36 11.04-17.03 11.04-26.68 0-9.65-3.7-19.32-11.05-26.7-7.37-7.35-17.04-11.04-26.7-11.04-9.63 0-19.3 3.7-26.67 11.05l-1.3 1.3 4.65 4.64z" fill="#fac03d"/></svg>